<svg xmlns="http://www.w3.org/2000/svg" viewBox="0 0 64 64" role="img" aria-label="OSA Platform">
  <defs>
    <linearGradient id="shield" x1="12" x2="52" y1="6" y2="58" gradientUnits="userSpaceOnUse">
      <stop offset="0" stop-color="#ef4444"/>
      <stop offset="0.48" stop-color="#991b1b"/>
      <stop offset="1" stop-color="#0f172a"/>
    </linearGradient>
    <radialGradient id="core" cx="32" cy="29" r="20" gradientUnits="userSpaceOnUse">
      <stop offset="0" stop-color="#fca5a5"/>
      <stop offset="0.38" stop-color="#ef4444"/>
      <stop offset="1" stop-color="#450a0a"/>
    </radialGradient>
  </defs>
  <rect width="64" height="64" rx="14" fill="#020617"/>
  <path d="M32 5 53 13v15c0 14.6-8.4 25.6-21 31C19.4 53.6 11 42.6 11 28V13L32 5Z" fill="url(#shield)" stroke="#f87171" stroke-width="2"/>
  <path d="M21 32c0-7.2 4.8-13 11-13s11 5.8 11 13" fill="none" stroke="#fecaca" stroke-width="3" stroke-linecap="round"/>
  <circle cx="32" cy="29" r="7" fill="url(#core)" stroke="#fee2e2" stroke-width="2"/>
  <path d="M32 16v6M32 36v8M19 28h6M39 28h6M24 20l4 4M40 20l-4 4M24 40l4-5M40 40l-4-5" stroke="#fecaca" stroke-width="2.2" stroke-linecap="round"/>
  <path d="M18 50 46 14" stroke="#38bdf8" stroke-width="2" stroke-linecap="round" opacity=".85"/>
  <circle cx="18" cy="50" r="2.5" fill="#38bdf8"/>
  <circle cx="46" cy="14" r="2.5" fill="#38bdf8"/>
</svg>
